<svg width="274" height="497" viewBox="0 0 274 497" fill="none" xmlns="http://www.w3.org/2000/svg">
<path d="M176.349 1.15199L176.153 110.709L175.958 220.267L166.958 194.834V194.769L155.285 438.664C166.763 471.01 172.893 488.291 172.958 488.356C173.023 488.422 179.544 488.813 187.435 489.204C211.303 490.378 240.91 492.921 263.408 495.725C268.625 496.378 273.059 496.704 273.385 496.443C273.712 496.182 273.777 384.668 273.712 248.569L273.516 1.15198L176.349 1.15199Z" fill="#4E4479"/>
<path d="M0.600555 0.825912V248.504C0.600555 384.733 0.730975 496.312 0.926605 496.508C1.12224 496.704 9.53472 495.856 19.7079 494.747C29.8811 493.639 43.9018 492.204 50.8796 491.617C61.5745 490.704 93.6591 488.682 97.311 488.617C98.4196 488.617 98.4849 483.074 98.6153 383.69L98.8109 278.763L106.571 300.674C107.745 304.065 108.136 305.109 109.31 308.434L120.983 64.604C118.505 57.6262 119.809 61.2781 117.005 53.3222C107.484 26.3893 99.3978 3.63008 99.0717 2.58669L98.4196 0.760681H0.600525L0.600555 0.825912Z" fill="#4E4479"/>
<path d="M0.600555 0.825912L98.7457 278.958V278.828L106.506 300.739C149.612 422.752 172.762 488.226 172.893 488.356C172.958 488.422 179.479 488.813 187.37 489.204C211.238 490.378 240.844 492.921 263.343 495.725C268.494 496.377 272.994 496.704 273.255 496.443L175.958 220.202V220.267L166.958 194.834C158.155 169.988 152.285 153.358 116.875 53.3221C107.354 26.3893 99.2674 3.63001 98.9413 2.58662L98.2892 0.76062H49.4449L0.600555 0.825912Z" fill="#695CA3"/>
</svg>
